G04 #@! TF.GenerationSoftware,KiCad,Pcbnew,9.0.1*
G04 #@! TF.CreationDate,2025-05-27T11:42:45+02:00*
G04 #@! TF.ProjectId,BANC_TEST_418,42414e43-5f54-4455-9354-5f3431382e6b,rev?*
G04 #@! TF.SameCoordinates,Original*
G04 #@! TF.FileFunction,Paste,Top*
G04 #@! TF.FilePolarity,Positive*
%FSLAX46Y46*%
G04 Gerber Fmt 4.6, Leading zero omitted, Abs format (unit mm)*
G04 Created by KiCad (PCBNEW 9.0.1) date 2025-05-27 11:42:45*
%MOMM*%
%LPD*%
G01*
G04 APERTURE LIST*
G04 Aperture macros list*
%AMRoundRect*
0 Rectangle with rounded corners*
0 $1 Rounding radius*
0 $2 $3 $4 $5 $6 $7 $8 $9 X,Y pos of 4 corners*
0 Add a 4 corners polygon primitive as box body*
4,1,4,$2,$3,$4,$5,$6,$7,$8,$9,$2,$3,0*
0 Add four circle primitives for the rounded corners*
1,1,$1+$1,$2,$3*
1,1,$1+$1,$4,$5*
1,1,$1+$1,$6,$7*
1,1,$1+$1,$8,$9*
0 Add four rect primitives between the rounded corners*
20,1,$1+$1,$2,$3,$4,$5,0*
20,1,$1+$1,$4,$5,$6,$7,0*
20,1,$1+$1,$6,$7,$8,$9,0*
20,1,$1+$1,$8,$9,$2,$3,0*%
%AMFreePoly0*
4,1,6,0.750000,-1.000000,-0.750000,-1.000000,-0.750000,1.150000,-0.500000,1.400000,0.750000,1.400000,0.750000,-1.000000,0.750000,-1.000000,$1*%
G04 Aperture macros list end*
%ADD10RoundRect,0.250000X-0.337500X-0.475000X0.337500X-0.475000X0.337500X0.475000X-0.337500X0.475000X0*%
%ADD11RoundRect,0.250000X-0.450000X0.350000X-0.450000X-0.350000X0.450000X-0.350000X0.450000X0.350000X0*%
%ADD12RoundRect,0.250000X-0.300000X0.500000X-0.300000X-0.500000X0.300000X-0.500000X0.300000X0.500000X0*%
%ADD13RoundRect,0.250000X0.350000X0.450000X-0.350000X0.450000X-0.350000X-0.450000X0.350000X-0.450000X0*%
%ADD14RoundRect,0.100000X0.225000X0.100000X-0.225000X0.100000X-0.225000X-0.100000X0.225000X-0.100000X0*%
%ADD15RoundRect,0.147500X-0.457500X-0.147500X0.457500X-0.147500X0.457500X0.147500X-0.457500X0.147500X0*%
%ADD16RoundRect,0.075000X0.540000X0.225000X-0.540000X0.225000X-0.540000X-0.225000X0.540000X-0.225000X0*%
%ADD17RoundRect,0.250000X-0.350000X-0.450000X0.350000X-0.450000X0.350000X0.450000X-0.350000X0.450000X0*%
%ADD18RoundRect,0.075000X-0.910000X-0.225000X0.910000X-0.225000X0.910000X0.225000X-0.910000X0.225000X0*%
%ADD19RoundRect,0.250000X0.310000X-0.970000X0.310000X0.970000X-0.310000X0.970000X-0.310000X-0.970000X0*%
%ADD20RoundRect,0.250000X0.475000X-0.337500X0.475000X0.337500X-0.475000X0.337500X-0.475000X-0.337500X0*%
%ADD21RoundRect,0.250000X0.650000X-1.000000X0.650000X1.000000X-0.650000X1.000000X-0.650000X-1.000000X0*%
%ADD22RoundRect,0.250000X0.450000X-0.350000X0.450000X0.350000X-0.450000X0.350000X-0.450000X-0.350000X0*%
%ADD23RoundRect,0.250000X-2.050000X-0.300000X2.050000X-0.300000X2.050000X0.300000X-2.050000X0.300000X0*%
%ADD24RoundRect,0.250000X-2.025000X-2.375000X2.025000X-2.375000X2.025000X2.375000X-2.025000X2.375000X0*%
%ADD25RoundRect,0.250000X0.337500X0.475000X-0.337500X0.475000X-0.337500X-0.475000X0.337500X-0.475000X0*%
%ADD26RoundRect,0.249999X-0.450001X-1.425001X0.450001X-1.425001X0.450001X1.425001X-0.450001X1.425001X0*%
%ADD27RoundRect,0.075000X-0.225000X0.540000X-0.225000X-0.540000X0.225000X-0.540000X0.225000X0.540000X0*%
%ADD28RoundRect,0.162500X-0.750000X-0.162500X0.750000X-0.162500X0.750000X0.162500X-0.750000X0.162500X0*%
%ADD29RoundRect,0.125000X-0.537500X-0.125000X0.537500X-0.125000X0.537500X0.125000X-0.537500X0.125000X0*%
%ADD30RoundRect,0.250000X-0.475000X0.337500X-0.475000X-0.337500X0.475000X-0.337500X0.475000X0.337500X0*%
%ADD31RoundRect,0.150000X-0.825000X-0.150000X0.825000X-0.150000X0.825000X0.150000X-0.825000X0.150000X0*%
%ADD32R,1.600000X1.400000*%
%ADD33RoundRect,0.250000X-1.100000X0.500000X-1.100000X-0.500000X1.100000X-0.500000X1.100000X0.500000X0*%
%ADD34R,7.875000X2.000000*%
%ADD35RoundRect,0.250000X1.750000X2.500000X-1.750000X2.500000X-1.750000X-2.500000X1.750000X-2.500000X0*%
%ADD36RoundRect,0.075000X0.225000X-0.540000X0.225000X0.540000X-0.225000X0.540000X-0.225000X-0.540000X0*%
%ADD37RoundRect,0.075000X-0.662500X-0.075000X0.662500X-0.075000X0.662500X0.075000X-0.662500X0.075000X0*%
%ADD38RoundRect,0.075000X-0.075000X-0.662500X0.075000X-0.662500X0.075000X0.662500X-0.075000X0.662500X0*%
%ADD39RoundRect,0.250001X-2.049999X-0.799999X2.049999X-0.799999X2.049999X0.799999X-2.049999X0.799999X0*%
%ADD40RoundRect,0.150000X0.150000X-0.875000X0.150000X0.875000X-0.150000X0.875000X-0.150000X-0.875000X0*%
%ADD41R,0.500000X0.500000*%
%ADD42FreePoly0,180.000000*%
G04 APERTURE END LIST*
D10*
X173012500Y-105850000D03*
X175087500Y-105850000D03*
X172787500Y-93850000D03*
X174862500Y-93850000D03*
D11*
X119050000Y-120100000D03*
X119050000Y-122100000D03*
D12*
X191590000Y-41900000D03*
X189050000Y-41900000D03*
X186510000Y-41900000D03*
X186510000Y-50800000D03*
X189050000Y-50800000D03*
X191590000Y-50800000D03*
D13*
X226300000Y-78900000D03*
X224300000Y-78900000D03*
D14*
X109800000Y-128450000D03*
X109800000Y-127800000D03*
X109800000Y-127150000D03*
X107900000Y-127150000D03*
X107900000Y-128450000D03*
D15*
X172540000Y-109450000D03*
X172540000Y-110400000D03*
X172540000Y-111350000D03*
X175050000Y-111350000D03*
X175050000Y-109450000D03*
D10*
X224225000Y-73400000D03*
X226300000Y-73400000D03*
D16*
X161460000Y-119200000D03*
X161460000Y-117300000D03*
X159340000Y-118250000D03*
D17*
X162637500Y-49795000D03*
X164637500Y-49795000D03*
X175025000Y-69075000D03*
X177025000Y-69075000D03*
D18*
X214300000Y-67090000D03*
X214300000Y-68360000D03*
X214300000Y-69630000D03*
X214300000Y-70900000D03*
X219240000Y-70900000D03*
X219240000Y-69630000D03*
X219240000Y-68360000D03*
X219240000Y-67090000D03*
D11*
X189050000Y-53850000D03*
X189050000Y-55850000D03*
D13*
X217250000Y-77875000D03*
X215250000Y-77875000D03*
D19*
X167800000Y-68855000D03*
X167800000Y-60245000D03*
D17*
X100350000Y-124800000D03*
X102350000Y-124800000D03*
D10*
X225750000Y-108615000D03*
X227825000Y-108615000D03*
D20*
X213825000Y-104190000D03*
X213825000Y-102115000D03*
D21*
X214550000Y-119350000D03*
X214550000Y-115350000D03*
D22*
X156810000Y-95850000D03*
X156810000Y-93850000D03*
D23*
X228325000Y-47585000D03*
D24*
X235050000Y-47350000D03*
X235050000Y-52900000D03*
X239900000Y-47350000D03*
X239900000Y-52900000D03*
D23*
X228325000Y-52665000D03*
D20*
X213825000Y-97690000D03*
X213825000Y-95615000D03*
D11*
X156660000Y-47500000D03*
X156660000Y-49500000D03*
D16*
X144860000Y-118950000D03*
X144860000Y-117050000D03*
X142740000Y-118000000D03*
D17*
X100350000Y-117800000D03*
X102350000Y-117800000D03*
D25*
X169937500Y-93850000D03*
X167862500Y-93850000D03*
D22*
X150850000Y-123200000D03*
X150850000Y-121200000D03*
D26*
X94775000Y-44600000D03*
X100875000Y-44600000D03*
D25*
X227912500Y-120400000D03*
X225837500Y-120400000D03*
D13*
X223050000Y-126850000D03*
X221050000Y-126850000D03*
D11*
X156810000Y-77350000D03*
X156810000Y-79350000D03*
X118925000Y-115150000D03*
X118925000Y-117150000D03*
D20*
X115925000Y-122125000D03*
X115925000Y-120050000D03*
D10*
X104975000Y-53350000D03*
X107050000Y-53350000D03*
D27*
X153610000Y-47940000D03*
X151710000Y-47940000D03*
X152660000Y-50060000D03*
D22*
X146300000Y-123000000D03*
X146300000Y-121000000D03*
D28*
X105762500Y-114355000D03*
X105762500Y-115625000D03*
X105762500Y-116895000D03*
X105762500Y-118165000D03*
X105762500Y-119435000D03*
X105762500Y-120705000D03*
X105762500Y-121975000D03*
X105762500Y-123245000D03*
X111937500Y-123245000D03*
X111937500Y-121975000D03*
X111937500Y-120705000D03*
X111937500Y-119435000D03*
X111937500Y-118165000D03*
X111937500Y-116895000D03*
X111937500Y-115625000D03*
X111937500Y-114355000D03*
D17*
X100350000Y-121300000D03*
X102350000Y-121300000D03*
D22*
X142800000Y-123000000D03*
X142800000Y-121000000D03*
D29*
X104775000Y-49400000D03*
X104775000Y-50050000D03*
X104775000Y-50700000D03*
X104775000Y-51350000D03*
X107050000Y-51350000D03*
X107050000Y-50700000D03*
X107050000Y-50050000D03*
X107050000Y-49400000D03*
D22*
X195825000Y-92050000D03*
X195825000Y-90050000D03*
D30*
X229800000Y-73900000D03*
X229800000Y-75975000D03*
D17*
X162457500Y-56295000D03*
X164457500Y-56295000D03*
D31*
X213075000Y-124445000D03*
X213075000Y-125715000D03*
X213075000Y-126985000D03*
X213075000Y-128255000D03*
X218025000Y-128255000D03*
X218025000Y-126985000D03*
X218025000Y-125715000D03*
X218025000Y-124445000D03*
D17*
X152310000Y-67850000D03*
X154310000Y-67850000D03*
D32*
X179087500Y-107600000D03*
X187087500Y-107600000D03*
X179087500Y-112100000D03*
X187087500Y-112100000D03*
D10*
X177550000Y-59850000D03*
X179625000Y-59850000D03*
D33*
X147310000Y-79050000D03*
X147310000Y-83850000D03*
D10*
X107225000Y-109235000D03*
X109300000Y-109235000D03*
D25*
X185337500Y-132950000D03*
X183262500Y-132950000D03*
D20*
X116150000Y-111825000D03*
X116150000Y-109750000D03*
D17*
X162457500Y-52485000D03*
X164457500Y-52485000D03*
D13*
X169550000Y-105850000D03*
X167550000Y-105850000D03*
D22*
X118925000Y-111775000D03*
X118925000Y-109775000D03*
D27*
X153710000Y-62350000D03*
X151810000Y-62350000D03*
X152760000Y-64470000D03*
D10*
X221750000Y-108615000D03*
X223825000Y-108615000D03*
D11*
X134275000Y-120875000D03*
X134275000Y-122875000D03*
D34*
X165862500Y-97850000D03*
X177737500Y-97850000D03*
D11*
X187890000Y-69850000D03*
X187890000Y-71850000D03*
D35*
X237800000Y-65400000D03*
X229300000Y-65400000D03*
D17*
X151810000Y-99850000D03*
X153810000Y-99850000D03*
X167030000Y-71500000D03*
X169030000Y-71500000D03*
D30*
X234800000Y-73825000D03*
X234800000Y-75900000D03*
D33*
X147310000Y-63050000D03*
X147310000Y-67850000D03*
D17*
X100350000Y-114300000D03*
X102350000Y-114300000D03*
D33*
X147310000Y-95050000D03*
X147310000Y-99850000D03*
D22*
X156810000Y-64350000D03*
X156810000Y-62350000D03*
D20*
X115900000Y-117125000D03*
X115900000Y-115050000D03*
D21*
X222800000Y-66400000D03*
X222800000Y-62400000D03*
D13*
X172300000Y-113250000D03*
X170300000Y-113250000D03*
D16*
X152910000Y-119150000D03*
X152910000Y-117250000D03*
X150790000Y-118200000D03*
D28*
X167550000Y-47350000D03*
X167550000Y-48620000D03*
X167550000Y-49890000D03*
X167550000Y-51160000D03*
X167550000Y-52430000D03*
X167550000Y-53700000D03*
X167550000Y-54970000D03*
X167550000Y-56240000D03*
X173725000Y-56240000D03*
X173725000Y-54970000D03*
X173725000Y-53700000D03*
X173725000Y-52430000D03*
X173725000Y-51160000D03*
X173725000Y-49890000D03*
X173725000Y-48620000D03*
X173725000Y-47350000D03*
D22*
X218050000Y-46350000D03*
X218050000Y-44350000D03*
D10*
X168050000Y-44850000D03*
X170125000Y-44850000D03*
D11*
X207550000Y-65850000D03*
X207550000Y-67850000D03*
D27*
X153760000Y-77790000D03*
X151860000Y-77790000D03*
X152810000Y-79910000D03*
D25*
X208587500Y-70550000D03*
X206512500Y-70550000D03*
D17*
X175075000Y-71550000D03*
X177075000Y-71550000D03*
D36*
X183900000Y-123410000D03*
X185800000Y-123410000D03*
X184850000Y-121290000D03*
D11*
X118800000Y-124950000D03*
X118800000Y-126950000D03*
D16*
X169050000Y-111350000D03*
X169050000Y-109450000D03*
X166930000Y-110400000D03*
D11*
X186050000Y-53850000D03*
X186050000Y-55850000D03*
D10*
X208550000Y-62350000D03*
X210625000Y-62350000D03*
D11*
X192550000Y-53850000D03*
X192550000Y-55850000D03*
D10*
X217750000Y-108615000D03*
X219825000Y-108615000D03*
D37*
X165387500Y-78600000D03*
X165387500Y-79100000D03*
X165387500Y-79600000D03*
X165387500Y-80100000D03*
X165387500Y-80600000D03*
X165387500Y-81100000D03*
X165387500Y-81600000D03*
X165387500Y-82100000D03*
X165387500Y-82600000D03*
X165387500Y-83100000D03*
X165387500Y-83600000D03*
X165387500Y-84100000D03*
D38*
X166800000Y-85512500D03*
X167300000Y-85512500D03*
X167800000Y-85512500D03*
X168300000Y-85512500D03*
X168800000Y-85512500D03*
X169300000Y-85512500D03*
X169800000Y-85512500D03*
X170300000Y-85512500D03*
X170800000Y-85512500D03*
X171300000Y-85512500D03*
X171800000Y-85512500D03*
X172300000Y-85512500D03*
D37*
X173712500Y-84100000D03*
X173712500Y-83600000D03*
X173712500Y-83100000D03*
X173712500Y-82600000D03*
X173712500Y-82100000D03*
X173712500Y-81600000D03*
X173712500Y-81100000D03*
X173712500Y-80600000D03*
X173712500Y-80100000D03*
X173712500Y-79600000D03*
X173712500Y-79100000D03*
X173712500Y-78600000D03*
D38*
X172300000Y-77187500D03*
X171800000Y-77187500D03*
X171300000Y-77187500D03*
X170800000Y-77187500D03*
X170300000Y-77187500D03*
X169800000Y-77187500D03*
X169300000Y-77187500D03*
X168800000Y-77187500D03*
X168300000Y-77187500D03*
X167800000Y-77187500D03*
X167300000Y-77187500D03*
X166800000Y-77187500D03*
D22*
X195800000Y-87550000D03*
X195800000Y-85550000D03*
X154350000Y-123200000D03*
X154350000Y-121200000D03*
D39*
X229150000Y-83900000D03*
X237950000Y-83900000D03*
D22*
X162460000Y-123300000D03*
X162460000Y-121300000D03*
D10*
X215800000Y-63900000D03*
X217875000Y-63900000D03*
D11*
X158960000Y-121300000D03*
X158960000Y-123300000D03*
D22*
X186650000Y-38100000D03*
X186650000Y-36100000D03*
D10*
X191315000Y-68350000D03*
X193390000Y-68350000D03*
D17*
X162637500Y-46295000D03*
X164637500Y-46295000D03*
D13*
X185850000Y-125850000D03*
X183850000Y-125850000D03*
D16*
X136835000Y-118825000D03*
X136835000Y-116925000D03*
X134715000Y-117875000D03*
D27*
X153760000Y-93730000D03*
X151860000Y-93730000D03*
X152810000Y-95850000D03*
D17*
X151660000Y-53500000D03*
X153660000Y-53500000D03*
D22*
X209950000Y-67850000D03*
X209950000Y-65850000D03*
D17*
X151810000Y-83850000D03*
X153810000Y-83850000D03*
D39*
X205250000Y-53350000D03*
X214050000Y-53350000D03*
D30*
X115975000Y-124900000D03*
X115975000Y-126975000D03*
D33*
X147160000Y-48200000D03*
X147160000Y-53000000D03*
D11*
X187890000Y-74850000D03*
X187890000Y-76850000D03*
D21*
X221550000Y-119350000D03*
X221550000Y-115350000D03*
D40*
X217605000Y-104500000D03*
X218875000Y-104500000D03*
X220145000Y-104500000D03*
X221415000Y-104500000D03*
X222685000Y-104500000D03*
X223955000Y-104500000D03*
X225225000Y-104500000D03*
X226495000Y-104500000D03*
X226495000Y-95200000D03*
X225225000Y-95200000D03*
X223955000Y-95200000D03*
X222685000Y-95200000D03*
X221415000Y-95200000D03*
X220145000Y-95200000D03*
X218875000Y-95200000D03*
X217605000Y-95200000D03*
D10*
X205475000Y-73650000D03*
X207550000Y-73650000D03*
D22*
X137775000Y-122875000D03*
X137775000Y-120875000D03*
D41*
X179625000Y-64850000D03*
X179625000Y-63850000D03*
X179625000Y-62850000D03*
X177125000Y-62850000D03*
X177125000Y-63850000D03*
X177125000Y-64850000D03*
D42*
X178375000Y-63650000D03*
D17*
X215300000Y-75400000D03*
X217300000Y-75400000D03*
D10*
X224300000Y-76400000D03*
X226375000Y-76400000D03*
M02*
