G04 #@! TF.GenerationSoftware,KiCad,Pcbnew,9.0.0*
G04 #@! TF.CreationDate,2025-07-26T18:59:56+02:00*
G04 #@! TF.ProjectId,BANC_TEST_418,42414e43-5f54-4455-9354-5f3431382e6b,rev?*
G04 #@! TF.SameCoordinates,Original*
G04 #@! TF.FileFunction,Soldermask,Top*
G04 #@! TF.FilePolarity,Negative*
%FSLAX46Y46*%
G04 Gerber Fmt 4.6, Leading zero omitted, Abs format (unit mm)*
G04 Created by KiCad (PCBNEW 9.0.0) date 2025-07-26 18:59:56*
%MOMM*%
%LPD*%
G01*
G04 APERTURE LIST*
G04 Aperture macros list*
%AMRoundRect*
0 Rectangle with rounded corners*
0 $1 Rounding radius*
0 $2 $3 $4 $5 $6 $7 $8 $9 X,Y pos of 4 corners*
0 Add a 4 corners polygon primitive as box body*
4,1,4,$2,$3,$4,$5,$6,$7,$8,$9,$2,$3,0*
0 Add four circle primitives for the rounded corners*
1,1,$1+$1,$2,$3*
1,1,$1+$1,$4,$5*
1,1,$1+$1,$6,$7*
1,1,$1+$1,$8,$9*
0 Add four rect primitives between the rounded corners*
20,1,$1+$1,$2,$3,$4,$5,0*
20,1,$1+$1,$4,$5,$6,$7,0*
20,1,$1+$1,$6,$7,$8,$9,0*
20,1,$1+$1,$8,$9,$2,$3,0*%
%AMFreePoly0*
4,1,19,0.809954,1.482520,0.847008,1.431520,0.852000,1.400000,0.852000,-1.000000,0.832520,-1.059954,0.781520,-1.097008,0.750000,-1.102000,-0.750000,-1.102000,-0.809954,-1.082520,-0.847008,-1.031520,-0.852000,-1.000000,-0.852000,1.150000,-0.832520,1.209954,-0.822125,1.222125,-0.572125,1.472125,-0.515956,1.500744,-0.500000,1.502000,0.750000,1.502000,0.809954,1.482520,0.809954,1.482520,
$1*%
G04 Aperture macros list end*
%ADD10RoundRect,0.250000X-0.337500X-0.475000X0.337500X-0.475000X0.337500X0.475000X-0.337500X0.475000X0*%
%ADD11RoundRect,0.250000X-0.450000X0.350000X-0.450000X-0.350000X0.450000X-0.350000X0.450000X0.350000X0*%
%ADD12RoundRect,0.250000X-0.300000X0.500000X-0.300000X-0.500000X0.300000X-0.500000X0.300000X0.500000X0*%
%ADD13RoundRect,0.250000X1.550000X-0.650000X1.550000X0.650000X-1.550000X0.650000X-1.550000X-0.650000X0*%
%ADD14O,3.600000X1.800000*%
%ADD15R,1.800000X1.800000*%
%ADD16C,1.800000*%
%ADD17RoundRect,0.250000X0.350000X0.450000X-0.350000X0.450000X-0.350000X-0.450000X0.350000X-0.450000X0*%
%ADD18RoundRect,0.100000X0.225000X0.100000X-0.225000X0.100000X-0.225000X-0.100000X0.225000X-0.100000X0*%
%ADD19RoundRect,0.198500X-0.508500X-0.198500X0.508500X-0.198500X0.508500X0.198500X-0.508500X0.198500X0*%
%ADD20RoundRect,0.250000X-0.350000X-0.450000X0.350000X-0.450000X0.350000X0.450000X-0.350000X0.450000X0*%
%ADD21R,1.500000X1.500000*%
%ADD22RoundRect,0.250000X-0.350000X0.850000X-0.350000X-0.850000X0.350000X-0.850000X0.350000X0.850000X0*%
%ADD23RoundRect,0.249997X-2.650003X2.950003X-2.650003X-2.950003X2.650003X-2.950003X2.650003X2.950003X0*%
%ADD24C,4.000000*%
%ADD25R,1.600000X1.600000*%
%ADD26C,1.600000*%
%ADD27RoundRect,0.100500X-0.986500X-0.301500X0.986500X-0.301500X0.986500X0.301500X-0.986500X0.301500X0*%
%ADD28RoundRect,0.250000X0.310000X-0.970000X0.310000X0.970000X-0.310000X0.970000X-0.310000X-0.970000X0*%
%ADD29RoundRect,0.250000X0.475000X-0.337500X0.475000X0.337500X-0.475000X0.337500X-0.475000X-0.337500X0*%
%ADD30RoundRect,0.250000X0.650000X-1.000000X0.650000X1.000000X-0.650000X1.000000X-0.650000X-1.000000X0*%
%ADD31RoundRect,0.250000X0.450000X-0.350000X0.450000X0.350000X-0.450000X0.350000X-0.450000X-0.350000X0*%
%ADD32RoundRect,0.250000X-0.850000X-0.350000X0.850000X-0.350000X0.850000X0.350000X-0.850000X0.350000X0*%
%ADD33RoundRect,0.249997X-2.950003X-2.650003X2.950003X-2.650003X2.950003X2.650003X-2.950003X2.650003X0*%
%ADD34RoundRect,0.250000X-0.650000X-1.550000X0.650000X-1.550000X0.650000X1.550000X-0.650000X1.550000X0*%
%ADD35O,1.800000X3.600000*%
%ADD36RoundRect,0.250000X0.337500X0.475000X-0.337500X0.475000X-0.337500X-0.475000X0.337500X-0.475000X0*%
%ADD37RoundRect,0.249999X-0.450001X-1.425001X0.450001X-1.425001X0.450001X1.425001X-0.450001X1.425001X0*%
%ADD38O,2.000000X3.000000*%
%ADD39R,3.000000X2.000000*%
%ADD40O,3.000000X2.000000*%
%ADD41RoundRect,0.100500X-0.301500X0.616500X-0.301500X-0.616500X0.301500X-0.616500X0.301500X0.616500X0*%
%ADD42RoundRect,0.150000X-0.650000X-0.150000X0.650000X-0.150000X0.650000X0.150000X-0.650000X0.150000X0*%
%ADD43RoundRect,0.125000X-0.537500X-0.125000X0.537500X-0.125000X0.537500X0.125000X-0.537500X0.125000X0*%
%ADD44RoundRect,0.250000X-1.100000X0.412500X-1.100000X-0.412500X1.100000X-0.412500X1.100000X0.412500X0*%
%ADD45RoundRect,0.150000X-0.825000X-0.150000X0.825000X-0.150000X0.825000X0.150000X-0.825000X0.150000X0*%
%ADD46RoundRect,0.249999X-1.550001X0.790001X-1.550001X-0.790001X1.550001X-0.790001X1.550001X0.790001X0*%
%ADD47O,3.600000X2.080000*%
%ADD48R,1.600000X1.400000*%
%ADD49RoundRect,0.250000X-1.100000X0.500000X-1.100000X-0.500000X1.100000X-0.500000X1.100000X0.500000X0*%
%ADD50RoundRect,0.250000X0.650000X1.550000X-0.650000X1.550000X-0.650000X-1.550000X0.650000X-1.550000X0*%
%ADD51R,4.500000X2.000000*%
%ADD52RoundRect,0.250000X0.445000X1.020000X-0.445000X1.020000X-0.445000X-1.020000X0.445000X-1.020000X0*%
%ADD53RoundRect,0.250000X-0.475000X0.337500X-0.475000X-0.337500X0.475000X-0.337500X0.475000X0.337500X0*%
%ADD54C,8.600000*%
%ADD55RoundRect,0.200000X-0.600000X-0.100000X0.600000X-0.100000X0.600000X0.100000X-0.600000X0.100000X0*%
%ADD56R,1.524000X1.524000*%
%ADD57C,1.524000*%
%ADD58C,3.400000*%
%ADD59RoundRect,0.100500X0.301500X-0.616500X0.301500X0.616500X-0.301500X0.616500X-0.301500X-0.616500X0*%
%ADD60RoundRect,0.100500X0.616500X0.301500X-0.616500X0.301500X-0.616500X-0.301500X0.616500X-0.301500X0*%
%ADD61RoundRect,0.250000X-0.412500X-1.100000X0.412500X-1.100000X0.412500X1.100000X-0.412500X1.100000X0*%
%ADD62RoundRect,0.075000X-0.662500X-0.075000X0.662500X-0.075000X0.662500X0.075000X-0.662500X0.075000X0*%
%ADD63RoundRect,0.075000X-0.075000X-0.662500X0.075000X-0.662500X0.075000X0.662500X-0.075000X0.662500X0*%
%ADD64R,2.200000X2.200000*%
%ADD65O,2.200000X2.200000*%
%ADD66RoundRect,0.250000X-1.500000X-0.550000X1.500000X-0.550000X1.500000X0.550000X-1.500000X0.550000X0*%
%ADD67R,1.700000X1.700000*%
%ADD68O,1.700000X1.700000*%
%ADD69RoundRect,0.250000X0.450000X-0.325000X0.450000X0.325000X-0.450000X0.325000X-0.450000X-0.325000X0*%
%ADD70RoundRect,0.250001X-2.049999X-0.799999X2.049999X-0.799999X2.049999X0.799999X-2.049999X0.799999X0*%
%ADD71RoundRect,0.162500X0.162500X-0.750000X0.162500X0.750000X-0.162500X0.750000X-0.162500X-0.750000X0*%
%ADD72RoundRect,0.102000X0.250000X0.250000X-0.250000X0.250000X-0.250000X-0.250000X0.250000X-0.250000X0*%
%ADD73FreePoly0,180.000000*%
%ADD74R,2.000000X2.000000*%
%ADD75C,2.000000*%
G04 APERTURE END LIST*
D10*
X173012500Y-105850000D03*
X175087500Y-105850000D03*
X172787500Y-93850000D03*
X174862500Y-93850000D03*
D11*
X119050000Y-120100000D03*
X119050000Y-122100000D03*
D12*
X191590000Y-41900000D03*
X189050000Y-41900000D03*
X186510000Y-41900000D03*
X186510000Y-50800000D03*
X189050000Y-50800000D03*
X191590000Y-50800000D03*
D13*
X85550000Y-137400000D03*
D14*
X85550000Y-133590000D03*
X85550000Y-129780000D03*
X85550000Y-125970000D03*
X85550000Y-122160000D03*
X85550000Y-118350000D03*
X85550000Y-114540000D03*
X85550000Y-110730000D03*
X85550000Y-106920000D03*
D15*
X191350000Y-73350000D03*
D16*
X193890000Y-73350000D03*
D17*
X226300000Y-78900000D03*
X224300000Y-78900000D03*
D18*
X109800000Y-128450000D03*
X109800000Y-127800000D03*
X109800000Y-127150000D03*
X107900000Y-127150000D03*
X107900000Y-128450000D03*
D19*
X172540000Y-109450000D03*
X172540000Y-110400000D03*
X172540000Y-111350000D03*
X175050000Y-111350000D03*
X175050000Y-109450000D03*
D10*
X224225000Y-73400000D03*
X226300000Y-73400000D03*
D20*
X162637500Y-49795000D03*
X164637500Y-49795000D03*
D21*
X243800000Y-74850000D03*
D20*
X175025000Y-69075000D03*
X177025000Y-69075000D03*
D22*
X169660000Y-122275000D03*
D23*
X167380000Y-128575000D03*
D22*
X165100000Y-122275000D03*
D24*
X237444669Y-117930000D03*
X237444669Y-92930000D03*
D25*
X236024669Y-99890000D03*
D26*
X236024669Y-102660000D03*
X236024669Y-105430000D03*
X236024669Y-108200000D03*
X236024669Y-110970000D03*
X238864669Y-101275000D03*
X238864669Y-104045000D03*
X238864669Y-106815000D03*
X238864669Y-109585000D03*
D27*
X214300000Y-67090000D03*
X214300000Y-68360000D03*
X214300000Y-69630000D03*
X214300000Y-70900000D03*
X219240000Y-70900000D03*
X219240000Y-69630000D03*
X219240000Y-68360000D03*
X219240000Y-67090000D03*
D17*
X138300000Y-119500000D03*
X136300000Y-119500000D03*
D11*
X189050000Y-53850000D03*
X189050000Y-55850000D03*
D17*
X217250000Y-77875000D03*
X215250000Y-77875000D03*
D28*
X167800000Y-68855000D03*
X167800000Y-60245000D03*
D20*
X100350000Y-124800000D03*
X102350000Y-124800000D03*
D10*
X225750000Y-108615000D03*
X227825000Y-108615000D03*
D29*
X213825000Y-104190000D03*
X213825000Y-102115000D03*
D30*
X214550000Y-119350000D03*
X214550000Y-115350000D03*
D31*
X156810000Y-95850000D03*
X156810000Y-93850000D03*
D32*
X230935000Y-47845000D03*
D33*
X237235000Y-50125000D03*
D32*
X230935000Y-52405000D03*
D29*
X213825000Y-97690000D03*
X213825000Y-95615000D03*
D11*
X156660000Y-47500000D03*
X156660000Y-49500000D03*
D20*
X100350000Y-117800000D03*
X102350000Y-117800000D03*
D34*
X104000000Y-34350000D03*
D35*
X107810000Y-34350000D03*
X111620000Y-34350000D03*
X115430000Y-34350000D03*
X119240000Y-34350000D03*
X123050000Y-34350000D03*
D36*
X169937500Y-93850000D03*
X167862500Y-93850000D03*
D37*
X94775000Y-44600000D03*
X100875000Y-44600000D03*
D36*
X227912500Y-120400000D03*
X225837500Y-120400000D03*
D17*
X223050000Y-126850000D03*
X221050000Y-126850000D03*
D11*
X156810000Y-77350000D03*
X156810000Y-79350000D03*
X118925000Y-115150000D03*
X118925000Y-117150000D03*
D29*
X115925000Y-122125000D03*
X115925000Y-120050000D03*
D38*
X120510000Y-54350000D03*
X120510000Y-46850000D03*
X125550000Y-54350000D03*
X125550000Y-46850000D03*
X115470000Y-54350000D03*
X115470000Y-46850000D03*
D39*
X140810000Y-46850000D03*
D40*
X140810000Y-54350000D03*
D10*
X104975000Y-53350000D03*
X107050000Y-53350000D03*
D41*
X153610000Y-47940000D03*
X151710000Y-47940000D03*
X152660000Y-50060000D03*
D38*
X120660000Y-101600000D03*
X120660000Y-94100000D03*
X125700000Y-101600000D03*
X125700000Y-94100000D03*
X115620000Y-101600000D03*
X115620000Y-94100000D03*
D39*
X140960000Y-94100000D03*
D40*
X140960000Y-101600000D03*
D20*
X146100000Y-116400000D03*
X148100000Y-116400000D03*
D42*
X105600000Y-114355000D03*
X105600000Y-115625000D03*
X105600000Y-116895000D03*
X105600000Y-118165000D03*
X105600000Y-119435000D03*
X105600000Y-120705000D03*
X105600000Y-121975000D03*
X105600000Y-123245000D03*
X112100000Y-123245000D03*
X112100000Y-121975000D03*
X112100000Y-120705000D03*
X112100000Y-119435000D03*
X112100000Y-118165000D03*
X112100000Y-116895000D03*
X112100000Y-115625000D03*
X112100000Y-114355000D03*
D20*
X100350000Y-121300000D03*
X102350000Y-121300000D03*
D43*
X104775000Y-49400000D03*
X104775000Y-50050000D03*
X104775000Y-50700000D03*
X104775000Y-51350000D03*
X107050000Y-51350000D03*
X107050000Y-50700000D03*
X107050000Y-50050000D03*
X107050000Y-49400000D03*
D31*
X195825000Y-92050000D03*
X195825000Y-90050000D03*
D44*
X229800000Y-73375000D03*
X229800000Y-76500000D03*
D20*
X162457500Y-56295000D03*
X164457500Y-56295000D03*
D45*
X213075000Y-124445000D03*
X213075000Y-125715000D03*
X213075000Y-126985000D03*
X213075000Y-128255000D03*
X218025000Y-128255000D03*
X218025000Y-126985000D03*
X218025000Y-125715000D03*
X218025000Y-124445000D03*
D46*
X84550000Y-44030000D03*
D47*
X84550000Y-49110000D03*
X84550000Y-54190000D03*
X84550000Y-59270000D03*
X84550000Y-64350000D03*
X84550000Y-69430000D03*
X84550000Y-74510000D03*
X84550000Y-79590000D03*
X84550000Y-84670000D03*
X84550000Y-89750000D03*
X84550000Y-94830000D03*
D20*
X152310000Y-67850000D03*
X154310000Y-67850000D03*
D48*
X179087500Y-107600000D03*
X187087500Y-107600000D03*
X179087500Y-112100000D03*
X187087500Y-112100000D03*
D10*
X177550000Y-59850000D03*
X179625000Y-59850000D03*
D49*
X147310000Y-79050000D03*
X147310000Y-83850000D03*
D17*
X155800000Y-89800000D03*
X153800000Y-89800000D03*
D10*
X107225000Y-109235000D03*
X109300000Y-109235000D03*
D36*
X185337500Y-132950000D03*
X183262500Y-132950000D03*
D17*
X153500000Y-44700000D03*
X151500000Y-44700000D03*
D34*
X146690000Y-34350000D03*
D35*
X150500000Y-34350000D03*
X154310000Y-34350000D03*
X158120000Y-34350000D03*
X161930000Y-34350000D03*
X165740000Y-34350000D03*
D29*
X116150000Y-111825000D03*
X116150000Y-109750000D03*
D20*
X162600000Y-52485000D03*
X164600000Y-52485000D03*
D17*
X169550000Y-105850000D03*
X167550000Y-105850000D03*
D31*
X118925000Y-111775000D03*
X118925000Y-109775000D03*
D50*
X125745000Y-138250000D03*
D35*
X121935000Y-138250000D03*
X118125000Y-138250000D03*
X114315000Y-138250000D03*
X110505000Y-138250000D03*
X106695000Y-138250000D03*
X102885000Y-138250000D03*
X99075000Y-138250000D03*
D41*
X153710000Y-62350000D03*
X151810000Y-62350000D03*
X152760000Y-64470000D03*
D10*
X221750000Y-108615000D03*
X223825000Y-108615000D03*
D31*
X180600000Y-123700000D03*
X180600000Y-121700000D03*
D22*
X160107500Y-122275000D03*
D23*
X157827500Y-128575000D03*
D22*
X155547500Y-122275000D03*
D51*
X167550000Y-97850000D03*
X176050000Y-97850000D03*
D11*
X187890000Y-69850000D03*
X187890000Y-71850000D03*
D52*
X236405000Y-65400000D03*
X230695000Y-65400000D03*
D20*
X151810000Y-99850000D03*
X153810000Y-99850000D03*
X167030000Y-71500000D03*
X169030000Y-71500000D03*
D53*
X234800000Y-73825000D03*
X234800000Y-75900000D03*
D54*
X245550000Y-139350000D03*
D22*
X141155000Y-122275000D03*
D23*
X138875000Y-128575000D03*
D22*
X136595000Y-122275000D03*
D49*
X147310000Y-63050000D03*
X147310000Y-67850000D03*
D34*
X219620000Y-35350000D03*
D35*
X223430000Y-35350000D03*
X227240000Y-35350000D03*
X231050000Y-35350000D03*
D20*
X100350000Y-114300000D03*
X102350000Y-114300000D03*
D54*
X82100000Y-31330000D03*
D21*
X191950000Y-32000000D03*
D49*
X147310000Y-95050000D03*
X147310000Y-99850000D03*
D20*
X159200000Y-76200000D03*
X161200000Y-76200000D03*
D31*
X156810000Y-64350000D03*
X156810000Y-62350000D03*
D29*
X115900000Y-117125000D03*
X115900000Y-115050000D03*
D30*
X222800000Y-66400000D03*
X222800000Y-62400000D03*
D17*
X172300000Y-113250000D03*
X170300000Y-113250000D03*
D42*
X167387500Y-47350000D03*
X167387500Y-48620000D03*
X167387500Y-49890000D03*
X167387500Y-51160000D03*
X167387500Y-52430000D03*
X167387500Y-53700000D03*
X167387500Y-54970000D03*
X167387500Y-56240000D03*
X173887500Y-56240000D03*
X173887500Y-54970000D03*
D55*
X173887500Y-53700000D03*
D42*
X173887500Y-52430000D03*
X173887500Y-51160000D03*
X173887500Y-49890000D03*
X173887500Y-48620000D03*
X173887500Y-47350000D03*
D31*
X218050000Y-46350000D03*
X218050000Y-44350000D03*
D56*
X182400000Y-139575000D03*
D57*
X180400000Y-139575000D03*
X178400000Y-139575000D03*
X176400000Y-139575000D03*
D50*
X219550000Y-138850000D03*
D35*
X215740000Y-138850000D03*
X211930000Y-138850000D03*
X208120000Y-138850000D03*
X204310000Y-138850000D03*
D17*
X148100000Y-119300000D03*
X146100000Y-119300000D03*
D10*
X168050000Y-44850000D03*
X170125000Y-44850000D03*
D11*
X207550000Y-65850000D03*
X207550000Y-67850000D03*
D41*
X153760000Y-77790000D03*
X151860000Y-77790000D03*
X152810000Y-79910000D03*
D17*
X157200000Y-119200000D03*
X155200000Y-119200000D03*
D36*
X208587500Y-70550000D03*
X206512500Y-70550000D03*
D58*
X210150000Y-35350000D03*
D20*
X175075000Y-71550000D03*
X177075000Y-71550000D03*
D59*
X183900000Y-123410000D03*
X185800000Y-123410000D03*
X184850000Y-121290000D03*
D11*
X118800000Y-124950000D03*
X118800000Y-126950000D03*
D60*
X169050000Y-111350000D03*
X169050000Y-109450000D03*
X166930000Y-110400000D03*
D54*
X245550000Y-31330000D03*
D11*
X186050000Y-53850000D03*
X186050000Y-55850000D03*
D61*
X208025000Y-62350000D03*
X211150000Y-62350000D03*
D11*
X192550000Y-53850000D03*
X192550000Y-55850000D03*
D10*
X217750000Y-108615000D03*
X219825000Y-108615000D03*
D62*
X165387500Y-78600000D03*
X165387500Y-79100000D03*
X165387500Y-79600000D03*
X165387500Y-80100000D03*
X165387500Y-80600000D03*
X165387500Y-81100000D03*
X165387500Y-81600000D03*
X165387500Y-82100000D03*
X165387500Y-82600000D03*
X165387500Y-83100000D03*
X165387500Y-83600000D03*
X165387500Y-84100000D03*
D63*
X166800000Y-85512500D03*
X167300000Y-85512500D03*
X167800000Y-85512500D03*
X168300000Y-85512500D03*
X168800000Y-85512500D03*
X169300000Y-85512500D03*
X169800000Y-85512500D03*
X170300000Y-85512500D03*
X170800000Y-85512500D03*
X171300000Y-85512500D03*
X171800000Y-85512500D03*
X172300000Y-85512500D03*
D62*
X173712500Y-84100000D03*
X173712500Y-83600000D03*
X173712500Y-83100000D03*
X173712500Y-82600000D03*
X173712500Y-82100000D03*
X173712500Y-81600000D03*
X173712500Y-81100000D03*
X173712500Y-80600000D03*
X173712500Y-80100000D03*
X173712500Y-79600000D03*
X173712500Y-79100000D03*
X173712500Y-78600000D03*
D63*
X172300000Y-77187500D03*
X171800000Y-77187500D03*
X171300000Y-77187500D03*
X170800000Y-77187500D03*
X170300000Y-77187500D03*
X169800000Y-77187500D03*
X169300000Y-77187500D03*
X168800000Y-77187500D03*
X168300000Y-77187500D03*
X167800000Y-77187500D03*
X167300000Y-77187500D03*
X166800000Y-77187500D03*
D64*
X222050000Y-55930000D03*
D65*
X222050000Y-45770000D03*
D31*
X195800000Y-87550000D03*
X195800000Y-85550000D03*
D20*
X155200000Y-116300000D03*
X157200000Y-116300000D03*
D17*
X155900000Y-58600000D03*
X153900000Y-58600000D03*
D66*
X235200000Y-84000000D03*
X240800000Y-84000000D03*
D67*
X203400000Y-83745000D03*
D68*
X203400000Y-86285000D03*
X203400000Y-88825000D03*
X203400000Y-91365000D03*
X203400000Y-93905000D03*
X203400000Y-96445000D03*
X203400000Y-98985000D03*
X203400000Y-101525000D03*
X203400000Y-104065000D03*
X203400000Y-106605000D03*
D20*
X164700000Y-116500000D03*
X166700000Y-116500000D03*
D10*
X215800000Y-63900000D03*
X217875000Y-63900000D03*
D31*
X186650000Y-38100000D03*
X186650000Y-36100000D03*
D10*
X191315000Y-68350000D03*
X193390000Y-68350000D03*
D20*
X162637500Y-46295000D03*
X164637500Y-46295000D03*
D17*
X185850000Y-125850000D03*
X183850000Y-125850000D03*
D41*
X153760000Y-93730000D03*
X151860000Y-93730000D03*
X152810000Y-95850000D03*
D20*
X151660000Y-53500000D03*
X153660000Y-53500000D03*
D38*
X120660000Y-85600000D03*
X120660000Y-78100000D03*
X125700000Y-85600000D03*
X125700000Y-78100000D03*
X115620000Y-85600000D03*
X115620000Y-78100000D03*
D39*
X140960000Y-78100000D03*
D40*
X140960000Y-85600000D03*
D17*
X166700000Y-119500000D03*
X164700000Y-119500000D03*
D31*
X209950000Y-67850000D03*
X209950000Y-65850000D03*
D20*
X151810000Y-83850000D03*
X153810000Y-83850000D03*
D69*
X182600000Y-38125000D03*
X182600000Y-36075000D03*
D70*
X205250000Y-53350000D03*
X214050000Y-53350000D03*
D53*
X115975000Y-124900000D03*
X115975000Y-126975000D03*
D38*
X120660000Y-69600000D03*
X120660000Y-62100000D03*
X125700000Y-69600000D03*
X125700000Y-62100000D03*
X115620000Y-69600000D03*
X115620000Y-62100000D03*
D39*
X140960000Y-62100000D03*
D40*
X140960000Y-69600000D03*
D49*
X147160000Y-48200000D03*
X147160000Y-53000000D03*
D11*
X187890000Y-74850000D03*
X187890000Y-76850000D03*
D50*
X157860000Y-138600000D03*
D35*
X154050000Y-138600000D03*
X150240000Y-138600000D03*
X146430000Y-138600000D03*
X142620000Y-138600000D03*
D30*
X221550000Y-119350000D03*
X221550000Y-115350000D03*
D71*
X217605000Y-102937500D03*
X218875000Y-102937500D03*
X220145000Y-102937500D03*
X221415000Y-102937500D03*
X222685000Y-102937500D03*
X223955000Y-102937500D03*
X225225000Y-102937500D03*
X226495000Y-102937500D03*
X226495000Y-96762500D03*
X225225000Y-96762500D03*
X223955000Y-96762500D03*
X222685000Y-96762500D03*
X221415000Y-96762500D03*
X220145000Y-96762500D03*
X218875000Y-96762500D03*
X217605000Y-96762500D03*
D67*
X226200000Y-125500000D03*
D68*
X226200000Y-128040000D03*
D22*
X150507500Y-122275000D03*
D23*
X148227500Y-128575000D03*
D22*
X145947500Y-122275000D03*
D10*
X205475000Y-73650000D03*
X207550000Y-73650000D03*
D20*
X136300000Y-116100000D03*
X138300000Y-116100000D03*
D72*
X179625000Y-64850000D03*
X179625000Y-63850000D03*
X179625000Y-62850000D03*
X177125000Y-62850000D03*
X177125000Y-63850000D03*
X177125000Y-64850000D03*
D73*
X178375000Y-63650000D03*
D20*
X215300000Y-75400000D03*
X217300000Y-75400000D03*
D74*
X200150000Y-122850000D03*
D75*
X192550000Y-122850000D03*
D10*
X224300000Y-76400000D03*
X226375000Y-76400000D03*
M02*
