G04 #@! TF.GenerationSoftware,KiCad,Pcbnew,9.0.0*
G04 #@! TF.CreationDate,2025-07-26T18:59:56+02:00*
G04 #@! TF.ProjectId,BANC_TEST_418,42414e43-5f54-4455-9354-5f3431382e6b,rev?*
G04 #@! TF.SameCoordinates,Original*
G04 #@! TF.FileFunction,Soldermask,Bot*
G04 #@! TF.FilePolarity,Negative*
%FSLAX46Y46*%
G04 Gerber Fmt 4.6, Leading zero omitted, Abs format (unit mm)*
G04 Created by KiCad (PCBNEW 9.0.0) date 2025-07-26 18:59:56*
%MOMM*%
%LPD*%
G01*
G04 APERTURE LIST*
G04 Aperture macros list*
%AMRoundRect*
0 Rectangle with rounded corners*
0 $1 Rounding radius*
0 $2 $3 $4 $5 $6 $7 $8 $9 X,Y pos of 4 corners*
0 Add a 4 corners polygon primitive as box body*
4,1,4,$2,$3,$4,$5,$6,$7,$8,$9,$2,$3,0*
0 Add four circle primitives for the rounded corners*
1,1,$1+$1,$2,$3*
1,1,$1+$1,$4,$5*
1,1,$1+$1,$6,$7*
1,1,$1+$1,$8,$9*
0 Add four rect primitives between the rounded corners*
20,1,$1+$1,$2,$3,$4,$5,0*
20,1,$1+$1,$4,$5,$6,$7,0*
20,1,$1+$1,$6,$7,$8,$9,0*
20,1,$1+$1,$8,$9,$2,$3,0*%
G04 Aperture macros list end*
%ADD10RoundRect,0.250000X1.550000X-0.650000X1.550000X0.650000X-1.550000X0.650000X-1.550000X-0.650000X0*%
%ADD11O,3.600000X1.800000*%
%ADD12R,1.800000X1.800000*%
%ADD13C,1.800000*%
%ADD14C,4.000000*%
%ADD15R,1.600000X1.600000*%
%ADD16C,1.600000*%
%ADD17RoundRect,0.250000X-0.650000X-1.550000X0.650000X-1.550000X0.650000X1.550000X-0.650000X1.550000X0*%
%ADD18O,1.800000X3.600000*%
%ADD19O,2.000000X3.000000*%
%ADD20R,3.000000X2.000000*%
%ADD21O,3.000000X2.000000*%
%ADD22RoundRect,0.249999X-1.550001X0.790001X-1.550001X-0.790001X1.550001X-0.790001X1.550001X0.790001X0*%
%ADD23O,3.600000X2.080000*%
%ADD24RoundRect,0.250000X0.650000X1.550000X-0.650000X1.550000X-0.650000X-1.550000X0.650000X-1.550000X0*%
%ADD25C,8.600000*%
%ADD26R,1.524000X1.524000*%
%ADD27C,1.524000*%
%ADD28C,3.400000*%
%ADD29R,2.200000X2.200000*%
%ADD30O,2.200000X2.200000*%
%ADD31R,1.700000X1.700000*%
%ADD32O,1.700000X1.700000*%
%ADD33R,2.000000X2.000000*%
%ADD34C,2.000000*%
G04 APERTURE END LIST*
D10*
X85550000Y-137400000D03*
D11*
X85550000Y-133590000D03*
X85550000Y-129780000D03*
X85550000Y-125970000D03*
X85550000Y-122160000D03*
X85550000Y-118350000D03*
X85550000Y-114540000D03*
X85550000Y-110730000D03*
X85550000Y-106920000D03*
D12*
X191350000Y-73350000D03*
D13*
X193890000Y-73350000D03*
D14*
X237444669Y-117930000D03*
X237444669Y-92930000D03*
D15*
X236024669Y-99890000D03*
D16*
X236024669Y-102660000D03*
X236024669Y-105430000D03*
X236024669Y-108200000D03*
X236024669Y-110970000D03*
X238864669Y-101275000D03*
X238864669Y-104045000D03*
X238864669Y-106815000D03*
X238864669Y-109585000D03*
D17*
X104000000Y-34350000D03*
D18*
X107810000Y-34350000D03*
X111620000Y-34350000D03*
X115430000Y-34350000D03*
X119240000Y-34350000D03*
X123050000Y-34350000D03*
D19*
X120510000Y-54350000D03*
X120510000Y-46850000D03*
X125550000Y-54350000D03*
X125550000Y-46850000D03*
X115470000Y-54350000D03*
X115470000Y-46850000D03*
D20*
X140810000Y-46850000D03*
D21*
X140810000Y-54350000D03*
D19*
X120660000Y-101600000D03*
X120660000Y-94100000D03*
X125700000Y-101600000D03*
X125700000Y-94100000D03*
X115620000Y-101600000D03*
X115620000Y-94100000D03*
D20*
X140960000Y-94100000D03*
D21*
X140960000Y-101600000D03*
D22*
X84550000Y-44030000D03*
D23*
X84550000Y-49110000D03*
X84550000Y-54190000D03*
X84550000Y-59270000D03*
X84550000Y-64350000D03*
X84550000Y-69430000D03*
X84550000Y-74510000D03*
X84550000Y-79590000D03*
X84550000Y-84670000D03*
X84550000Y-89750000D03*
X84550000Y-94830000D03*
D17*
X146690000Y-34350000D03*
D18*
X150500000Y-34350000D03*
X154310000Y-34350000D03*
X158120000Y-34350000D03*
X161930000Y-34350000D03*
X165740000Y-34350000D03*
D24*
X125745000Y-138250000D03*
D18*
X121935000Y-138250000D03*
X118125000Y-138250000D03*
X114315000Y-138250000D03*
X110505000Y-138250000D03*
X106695000Y-138250000D03*
X102885000Y-138250000D03*
X99075000Y-138250000D03*
D25*
X245550000Y-139350000D03*
D17*
X219620000Y-35350000D03*
D18*
X223430000Y-35350000D03*
X227240000Y-35350000D03*
X231050000Y-35350000D03*
D25*
X82100000Y-31330000D03*
D26*
X182400000Y-139575000D03*
D27*
X180400000Y-139575000D03*
X178400000Y-139575000D03*
X176400000Y-139575000D03*
D24*
X219550000Y-138850000D03*
D18*
X215740000Y-138850000D03*
X211930000Y-138850000D03*
X208120000Y-138850000D03*
X204310000Y-138850000D03*
D28*
X210150000Y-35350000D03*
D25*
X245550000Y-31330000D03*
D29*
X222050000Y-55930000D03*
D30*
X222050000Y-45770000D03*
D31*
X203400000Y-83745000D03*
D32*
X203400000Y-86285000D03*
X203400000Y-88825000D03*
X203400000Y-91365000D03*
X203400000Y-93905000D03*
X203400000Y-96445000D03*
X203400000Y-98985000D03*
X203400000Y-101525000D03*
X203400000Y-104065000D03*
X203400000Y-106605000D03*
D19*
X120660000Y-85600000D03*
X120660000Y-78100000D03*
X125700000Y-85600000D03*
X125700000Y-78100000D03*
X115620000Y-85600000D03*
X115620000Y-78100000D03*
D20*
X140960000Y-78100000D03*
D21*
X140960000Y-85600000D03*
D19*
X120660000Y-69600000D03*
X120660000Y-62100000D03*
X125700000Y-69600000D03*
X125700000Y-62100000D03*
X115620000Y-69600000D03*
X115620000Y-62100000D03*
D20*
X140960000Y-62100000D03*
D21*
X140960000Y-69600000D03*
D24*
X157860000Y-138600000D03*
D18*
X154050000Y-138600000D03*
X150240000Y-138600000D03*
X146430000Y-138600000D03*
X142620000Y-138600000D03*
D31*
X226200000Y-125500000D03*
D32*
X226200000Y-128040000D03*
D33*
X200150000Y-122850000D03*
D34*
X192550000Y-122850000D03*
M02*
