M48
; DRILL file {KiCad 9.0.0} date 2025-07-26T19:00:03+0200
; FORMAT={-:-/ absolute / metric / decimal}
; #@! TF.CreationDate,2025-07-26T19:00:03+02:00
; #@! TF.GenerationSoftware,Kicad,Pcbnew,9.0.0
; #@! TF.FileFunction,Plated,1,2,PTH
FMAT,2
METRIC
; #@! TA.AperFunction,Plated,PTH,ViaDrill
T1C0.300
; #@! TA.AperFunction,Plated,PTH,ViaDrill
T2C0.350
; #@! TA.AperFunction,Plated,PTH,ViaDrill
T3C0.600
; #@! TA.AperFunction,Plated,PTH,ComponentDrill
T4C0.762
; #@! TA.AperFunction,Plated,PTH,ComponentDrill
T5C0.900
; #@! TA.AperFunction,Plated,PTH,ComponentDrill
T6C1.000
; #@! TA.AperFunction,Plated,PTH,ComponentDrill
T7C1.100
; #@! TA.AperFunction,Plated,PTH,ComponentDrill
T8C1.200
; #@! TA.AperFunction,Plated,PTH,ComponentDrill
T9C1.300
; #@! TA.AperFunction,Plated,PTH,ComponentDrill
T10C1.400
; #@! TA.AperFunction,Plated,PTH,ComponentDrill
T11C1.850
; #@! TA.AperFunction,Plated,PTH,ComponentDrill
T12C3.200
; #@! TA.AperFunction,Plated,PTH,ComponentDrill
T13C4.300
%
G90
G05
T1
X156.6Y-109.4
X163.11Y-83.1
X165.28Y-76.96
X167.0Y-107.5
X174.1Y-87.9
X177.85Y-92.9
X185.45Y-93.6
X196.925Y-83.05
X197.875Y-102.275
X214.6Y-107.6
X222.6Y-93.1
X226.495Y-100.9
X227.0Y-88.9
X229.29Y-137.15
T2
X104.975Y-62.05
X104.975Y-71.45
X105.775Y-128.25
X107.9Y-121.775
X109.325Y-121.675
X112.6Y-52.85
X112.7Y-127.0
X115.95Y-129.25
X122.125Y-111.025
X124.925Y-122.4
X129.0Y-115.15
X129.2Y-131.3
X130.325Y-98.675
X130.65Y-118.075
X133.675Y-132.875
X151.175Y-70.85
X152.0Y-59.275
X154.55Y-105.65
X154.575Y-108.0
X154.775Y-70.8
X157.7Y-101.15
X160.787Y-111.912
X161.05Y-105.75
X161.675Y-71.7
X162.4Y-84.5
X162.6Y-68.075
X163.625Y-73.1
X163.725Y-85.225
X163.875Y-62.625
X164.35Y-93.0
X164.825Y-87.3
X165.15Y-70.6
X165.375Y-44.35
X166.775Y-80.075
X167.7Y-58.15
X168.075Y-88.525
X168.45Y-82.0
X168.725Y-74.4
X168.85Y-83.6
X168.875Y-80.425
X170.275Y-88.075
X171.0Y-48.525
X171.125Y-83.45
X171.825Y-79.525
X173.55Y-63.65
X174.075Y-74.25
X175.425Y-82.75
X176.025Y-86.4
X178.05Y-81.25
X178.8Y-131.55
X178.975Y-56.325
X179.675Y-81.625
X180.85Y-57.725
X181.475Y-77.15
X181.675Y-62.025
X182.575Y-69.925
X182.875Y-78.175
X183.0Y-89.475
X184.275Y-54.7
X186.575Y-48.5
X187.05Y-93.35
X187.4Y-128.0
X187.825Y-91.6
X191.475Y-48.7
X192.65Y-81.55
X195.6Y-109.45
X196.875Y-45.4
X199.175Y-106.025
X207.95Y-128.2
X208.975Y-116.575
X209.1Y-114.65
X210.1Y-89.15
X212.95Y-132.325
X225.225Y-89.6
X230.375Y-106.475
X231.95Y-100.925
T3
X158.2Y-66.74
X160.075Y-54.225
X194.75Y-137.925
T4
X176.4Y-139.575
X178.4Y-139.575
X180.4Y-139.575
X182.4Y-139.575
T5
X191.35Y-73.35
X193.89Y-73.35
T6
X192.55Y-122.85
X200.15Y-122.85
X203.4Y-83.745
X203.4Y-86.285
X203.4Y-88.825
X203.4Y-91.365
X203.4Y-93.905
X203.4Y-96.445
X203.4Y-98.985
X203.4Y-101.525
X203.4Y-104.065
X203.4Y-106.605
X226.2Y-125.5
X226.2Y-128.04
X236.025Y-99.89
X236.025Y-102.66
X236.025Y-105.43
X236.025Y-108.2
X236.025Y-110.97
X238.865Y-101.275
X238.865Y-104.045
X238.865Y-106.815
X238.865Y-109.585
T7
X222.05Y-45.77
X222.05Y-55.93
T8
X85.55Y-106.92
X85.55Y-110.73
X85.55Y-114.54
X85.55Y-118.35
X85.55Y-122.16
X85.55Y-125.97
X85.55Y-129.78
X85.55Y-133.59
X85.55Y-137.4
X99.075Y-138.25
X102.885Y-138.25
X104.0Y-34.35
X106.695Y-138.25
X107.81Y-34.35
X110.505Y-138.25
X111.62Y-34.35
X114.315Y-138.25
X115.43Y-34.35
X118.125Y-138.25
X119.24Y-34.35
X121.935Y-138.25
X123.05Y-34.35
X125.745Y-138.25
X142.62Y-138.6
X146.43Y-138.6
X146.69Y-34.35
X150.24Y-138.6
X150.5Y-34.35
X154.05Y-138.6
X154.31Y-34.35
X157.86Y-138.6
X158.12Y-34.35
X161.93Y-34.35
X165.74Y-34.35
X204.31Y-138.85
X208.12Y-138.85
X211.93Y-138.85
X215.74Y-138.85
X219.55Y-138.85
X219.62Y-35.35
X223.43Y-35.35
X227.24Y-35.35
X231.05Y-35.35
T9
X115.47Y-46.85
X115.47Y-54.35
X115.62Y-62.1
X115.62Y-69.6
X115.62Y-78.1
X115.62Y-85.6
X115.62Y-94.1
X115.62Y-101.6
X120.51Y-46.85
X120.51Y-54.35
X120.66Y-62.1
X120.66Y-69.6
X120.66Y-78.1
X120.66Y-85.6
X120.66Y-94.1
X120.66Y-101.6
X125.55Y-46.85
X125.55Y-54.35
X125.7Y-62.1
X125.7Y-69.6
X125.7Y-78.1
X125.7Y-85.6
X125.7Y-94.1
X125.7Y-101.6
X140.81Y-46.85
X140.81Y-54.35
X140.96Y-62.1
X140.96Y-69.6
X140.96Y-78.1
X140.96Y-85.6
X140.96Y-94.1
X140.96Y-101.6
T10
X84.55Y-44.03
X84.55Y-49.11
X84.55Y-54.19
X84.55Y-59.27
X84.55Y-64.35
X84.55Y-69.43
X84.55Y-74.51
X84.55Y-79.59
X84.55Y-84.67
X84.55Y-89.75
X84.55Y-94.83
T11
X210.15Y-35.35
T12
X237.445Y-92.93
X237.445Y-117.93
T13
X82.1Y-31.33
X245.55Y-31.33
X245.55Y-139.35
M30
